<?xml version="1.0" encoding="UTF-8" standalone="no"?>
<!-- Created with Inkscape (http://www.inkscape.org/) -->

<svg
   viewBox="-16.5 9.5 250 250"
   version="1.1"
   id="svg1"
   inkscape:version="1.4 (e7c3feb1, 2024-10-09)"
   sodipodi:docname="Transparent_Logo_No_Text.svg"
   xmlns:inkscape="http://www.inkscape.org/namespaces/inkscape"
   xmlns:sodipodi="http://sodipodi.sourceforge.net/DTD/sodipodi-0.dtd"
   xmlns="http://www.w3.org/2000/svg"
   xmlns:svg="http://www.w3.org/2000/svg">
  <sodipodi:namedview
     id="namedview1"
     pagecolor="#000000"
     bordercolor="#000000"
     borderopacity="0.25"
     inkscape:showpageshadow="true"
     inkscape:pageopacity="0.0"
     inkscape:pagecheckerboard="true"
     inkscape:deskcolor="#d1d1d1"
     inkscape:document-units="mm"
     inkscape:zoom="0.66813973"
     inkscape:cx="397.37197"
     inkscape:cy="561.25984"
     inkscape:window-width="1632"
     inkscape:window-height="969"
     inkscape:window-x="0"
     inkscape:window-y="25"
     inkscape:window-maximized="0"
     inkscape:current-layer="layer1"
     inkscape:antialias-rendering="true"
     showborder="false"
     borderlayer="true" />
  <defs
     id="defs1">
    <linearGradient
       id="SVGID_1_"
       gradientUnits="userSpaceOnUse"
       x1="589.16333"
       y1="375.06281"
       x2="728.85181"
       y2="617.01062">
      <stop
         offset="2.295692e-02"
         style="stop-color: #7F37BF;"
         id="stop1" />
      <stop
         offset="0.1764"
         style="stop-color: #9046CC;"
         id="stop2" />
      <stop
         offset="0.5238"
         style="stop-color: #B264E5;"
         id="stop3" />
      <stop
         offset="0.8108"
         style="stop-color: #C776F4;"
         id="stop4" />
      <stop
         offset="1"
         style="stop-color: #CF7DFA;"
         id="stop5" />
    </linearGradient>
    <linearGradient
       id="SVGID_00000023277001886722853050000001465152063085175683_"
       gradientUnits="userSpaceOnUse"
       x1="129.22099"
       y1="394.71109"
       x2="333.58411"
       y2="599.07422">
      <stop
         offset="2.369748e-02"
         style="stop-color: #4540E1;"
         id="stop6" />
      <stop
         offset="0.9994"
         style="stop-color: #10C3F4;"
         id="stop7" />
    </linearGradient>
    <linearGradient
       class="st2"
       id="SVGID_00000045602564608920914230000017352686362314441916_"
       gradientUnits="userSpaceOnUse"
       x1="678.74542"
       y1="478.2345"
       x2="611.67517"
       y2="362.06549"
       style="opacity:0.61">
      <stop
         offset="6.782803e-04"
         style="stop-color: #171717; stop-opacity: 0.4;"
         id="stop8" />
      <stop
         offset="1"
         style="stop-color: #000000;"
         id="stop9" />
    </linearGradient>
    <linearGradient
       class="st2"
       id="SVGID_00000145750379831825421140000010187490640585131146_"
       gradientUnits="userSpaceOnUse"
       x1="221.27451"
       y1="478.15411"
       x2="288.3049"
       y2="362.05399"
       style="opacity:0.61">
      <stop
         offset="6.782803e-04"
         style="stop-color: #171717; stop-opacity: 0.4;"
         id="stop10" />
      <stop
         offset="1"
         style="stop-color: #000000;"
         id="stop11" />
    </linearGradient>
    <linearGradient
       id="SVGID_00000179640052841349916260000003849056371916077231_"
       gradientUnits="userSpaceOnUse"
       x1="450"
       y1="400.29709"
       x2="697.31171"
       y2="400.29709">
      <stop
         offset="2.299782e-02"
         style="stop-color: #3019C4;"
         id="stop12" />
      <stop
         offset="0.9972"
         style="stop-color: #5816AC;"
         id="stop13" />
    </linearGradient>
    <linearGradient
       id="SVGID_00000057127909574844025980000000797121984448768419_"
       gradientUnits="userSpaceOnUse"
       x1="213.81261"
       y1="386.1304"
       x2="519.16803"
       y2="463.7355">
      <stop
         offset="2.372621e-02"
         style="stop-color: #C902FF;"
         id="stop14" />
      <stop
         offset="0.9997"
         style="stop-color: #4C70F6;"
         id="stop15" />
    </linearGradient>
  </defs>
  <g
     inkscape:label="Layer 1"
     inkscape:groupmode="layer"
     id="layer1">
    <svg
       version="1.1"
       id="7777_1"
       x="126.65392"
       y="120"
       viewBox="192.70001 270.45633 514.50006 359.14371"
       xml:space="preserve"
       height="224.55534"
       width="321.69214"
       preserveAspectRatio="xMinYMin"
       enable-background="new 0 0 900 900"
       style="overflow:visible"><linearGradient
         id="linearGradient20"
         gradientUnits="userSpaceOnUse"
         x1="589.16333"
         y1="375.06281"
         x2="728.85181"
         y2="617.01062"><stop
           offset="2.295692e-02"
           style="stop-color: #7F37BF;"
           id="stop16" /><stop
           offset="0.1764"
           style="stop-color: #9046CC;"
           id="stop17" /><stop
           offset="0.5238"
           style="stop-color: #B264E5;"
           id="stop18" /><stop
           offset="0.8108"
           style="stop-color: #C776F4;"
           id="stop19" /><stop
           offset="1"
           style="stop-color: #CF7DFA;"
           id="stop20" /></linearGradient><linearGradient
         id="linearGradient22"
         gradientUnits="userSpaceOnUse"
         x1="129.22099"
         y1="394.71109"
         x2="333.58411"
         y2="599.07422"><stop
           offset="2.369748e-02"
           style="stop-color: #4540E1;"
           id="stop21" /><stop
           offset="0.9994"
           style="stop-color: #10C3F4;"
           id="stop22" /></linearGradient><linearGradient
         class="st2"
         id="linearGradient24"
         gradientUnits="userSpaceOnUse"
         x1="678.74542"
         y1="478.2345"
         x2="611.67517"
         y2="362.06549"
         style="opacity:0.61"><stop
           offset="6.782803e-04"
           style="stop-color: #171717; stop-opacity: 0.4;"
           id="stop23" /><stop
           offset="1"
           style="stop-color: #000000;"
           id="stop24" /></linearGradient><linearGradient
         class="st2"
         id="linearGradient26"
         gradientUnits="userSpaceOnUse"
         x1="221.27451"
         y1="478.15411"
         x2="288.3049"
         y2="362.05399"
         style="opacity:0.61"><stop
           offset="6.782803e-04"
           style="stop-color: #171717; stop-opacity: 0.4;"
           id="stop25" /><stop
           offset="1"
           style="stop-color: #000000;"
           id="stop26" /></linearGradient><linearGradient
         id="linearGradient28"
         gradientUnits="userSpaceOnUse"
         x1="450"
         y1="400.29709"
         x2="697.31171"
         y2="400.29709"><stop
           offset="2.299782e-02"
           style="stop-color: #3019C4;"
           id="stop27" /><stop
           offset="0.9972"
           style="stop-color: #5816AC;"
           id="stop28" /></linearGradient><linearGradient
         id="linearGradient30"
         gradientUnits="userSpaceOnUse"
         x1="213.81261"
         y1="386.1304"
         x2="519.16803"
         y2="463.7355"><stop
           offset="2.372621e-02"
           style="stop-color: #C902FF;"
           id="stop29" /><stop
           offset="0.9997"
           style="stop-color: #4C70F6;"
           id="stop30" /></linearGradient><g
         id="g1"
         transform="matrix(0.51108506,0,0,0.59415669,-66.00188,26.305821)"><path
           class="st0"
           d="m 697.3,321.2 c -19.1,0.8 -37.8,9.8 -50.2,27.2 -16.8,23.5 -33.5,47.1 -50.3,70.7 v 106.5 104 h 110.4 v -259 -7.6 c 0,-14.9 -3.5,-29.1 -9.9,-41.8 z"
           style="fill:url(#SVGID_1_)"
           id="path5" /><path
           style="fill:url(#SVGID_00000023277001886722853050000001465152063085175683_)"
           d="m 252.8,348.4 c -12.4,-17.3 -31.1,-26.4 -50.2,-27.2 -6.4,12.6 -9.9,26.8 -9.9,41.8 v 7.5 259 H 303.1 V 525.4 419.1 C 286.4,395.5 269.6,372 252.8,348.4 Z"
           id="path7" /><path
           class="st2"
           style="opacity:0.61;fill:url(#SVGID_00000045602564608920914230000017352686362314441916_)"
           d="m 697.3,321.2 c -19.1,0.8 -37.8,9.8 -50.2,27.2 -16.8,23.5 -33.5,47.1 -50.3,70.7 v 106.5 l 110.4,-155 V 363 c 0,-14.9 -3.5,-29.1 -9.9,-41.8 z"
           id="path9" /><path
           class="st2"
           style="opacity:0.61;fill:url(#SVGID_00000145750379831825421140000010187490640585131146_)"
           d="M 303.2,419.1 V 525.5 L 192.8,370.5 V 363 c 0,-14.9 3.5,-29.1 9.9,-41.8 19.1,0.8 37.8,9.8 50.2,27.2 16.7,23.6 33.5,47.1 50.3,70.7 z"
           id="path11" /><path
           style="fill:url(#SVGID_00000179640052841349916260000003849056371916077231_)"
           d="m 697.3,321.2 c -10.9,-21.6 -30.1,-38.6 -54.4,-46.3 -38.5,-12.3 -80,1.5 -103.5,34.4 L 450,435 l 67.8,95.1 26.6,-37.3 c 17.5,-24.6 35,-49.1 52.5,-73.7 16.8,-23.5 33.5,-47.1 50.3,-70.7 12.3,-17.3 31.1,-26.4 50.1,-27.2 z"
           id="path13" /><path
           style="fill:url(#SVGID_00000057127909574844025980000000797121984448768419_)"
           d="m 517.8,530.1 c -0.8,1.1 -1.6,2.2 -2.3,3.3 -5.2,7.3 -10.4,14.6 -15.6,21.9 -24.4,34.3 -75.3,34.3 -99.7,0 -14.8,-20.8 -29.7,-41.7 -44.5,-62.5 -17.5,-24.6 -35,-49.1 -52.5,-73.7 C 286.4,395.6 269.7,372 252.9,348.4 240.5,331.1 221.8,322 202.7,321.2 v 0 c 10.9,-21.6 30.1,-38.5 54.4,-46.3 38.5,-12.3 80,1.5 103.5,34.4 L 450,435 Z"
           id="path15" /></g></svg>
  </g>
</svg>
